# xmcd
#
# Track frame offsets:
#	225
#	24900
#	46513
#	68237
#	92518
#	110310
#	134455
#	165995
#	187760
#	207309
#	223258
#	250513
#	267919
#	287514
#
# Disc length: 4128 seconds
# Revision: 0
# Processed by: cddbd v1.5.2PL0 Copyright (c) Steve Scherf et al.
# Submitted via: dBpowerAMP V12.0
#
DISCID=b6101d0e
DTITLE=Barry White and The Love Unlimited Orchestra and Glodean White - The Album Vol.2 - Cd1
DYEAR=2014
DGENRE=Pop
TTITLE0=High Steppin Hip Dressin Fella
TTITLE1=Jamaican Girl
TTITLE2=Bayou
TTITLE3=Didn't We Make It Happen Baby
TTITLE4=I'm So Glad That I'm Woman
TTITLE5=Lady, Sweet Lady
TTITLE6=Sheet Music
TTITLE7=I Did It For Love
TTITLE8=It Ain't Love Babe (Until You Give It Up)
TTITLE9=He's Mine (No, You Can't Have Him)
TTITLE10=Let Me In And Let's Begin With Love
TTITLE11=We Can't Let Go Of Love
TTITLE12=Your Love, Your Love
TTITLE13=Free
EXTD=
EXTT0=
EXTT1=
EXTT2=
EXTT3=
EXTT4=
EXTT5=
EXTT6=
EXTT7=
EXTT8=
EXTT9=
EXTT10=
EXTT11=
EXTT12=
EXTT13=
PLAYORDER=
